<?xml version="1.0" encoding="UTF-8" standalone="no"?><svg width="40" height="40" viewBox="0 0 40 40" fill="none" xmlns="http://www.w3.org/2000/svg">
<path d="M21.0106 0.0337518C23.5213 0 26.0177 0.0200011 28.5111 0C28.6622 2.55139 29.7183 5.15027 31.8679 6.95412C34.0131 8.80297 37.0476 9.64926 40 9.93553V16.6471C37.2332 16.5684 34.4534 16.0684 31.9427 15.0333C30.8492 14.6033 29.8305 14.0495 28.8334 13.4832C28.8205 18.3535 28.8564 23.2175 28.7974 28.0677C28.6478 30.3979 27.7629 32.7167 26.2033 34.6368C23.694 37.8333 19.3387 39.9171 14.8655 39.9821C12.1217 40.1184 9.38074 39.4684 7.04268 38.2708C3.16797 36.2857 0.441428 32.6517 0.0443167 28.7515C-0.00570368 27.9255 -0.013385 27.098 0.0212957 26.2714C0.36661 23.1 2.17231 20.0661 4.97511 18.0022C8.152 15.5983 12.6022 14.4533 16.769 15.1308C16.8079 17.5997 16.6942 20.0661 16.6942 22.535C14.7907 21.9999 12.5663 22.1499 10.903 23.1537C9.68612 23.8502 8.76651 24.875 8.28581 26.0701C7.8887 26.9152 8.00236 27.854 8.02538 28.7515C8.48148 31.4867 11.5087 33.7855 14.7403 33.5368C16.8827 33.5168 18.9359 32.4367 20.0524 30.8554C20.4135 30.3016 20.8178 29.7353 20.8394 29.0841C21.0279 26.1026 20.9531 23.1337 20.9761 20.1523C20.9919 13.4332 20.9531 6.73286 21.0121 0.0350019L21.0106 0.0337518Z" fill="#af8229"/>
</svg>
